<!--?xml version="1.0" standalone="no"?--><svg version="1.0" xmlns="http://www.w3.org/2000/svg" width="293.000000pt" height="300.000000pt" viewBox="0 0 293.000000 300.000000" preserveAspectRatio="xMidYMid meet">
<metadata>
  <rdf:rdf xmlns:rdf="http://www.w3.org/1999/02/22-rdf-syntax-ns#" xmlns:rdfs="http://www.w3.org/2000/01/rdf-schema#" xmlns:dc="http://purl.org/dc/elements/1.1/">
    <rdf:description dc:title="wave clipart" dc:publisher="Hiox" dc:date="2015-04-20" dc:format="image/svg+xml" dc:language="en">
      <dc:creator>
        <rdf:bag>
          <rdf:li>svgimages.com</rdf:li>
        </rdf:bag>
      </dc:creator>
    </rdf:description>
  </rdf:rdf>
</metadata>
<g transform="translate(0.000000,300.000000) scale(0.100000,-0.100000)" fill="#3094CC" stroke="none">
<path class="node" id="node1" d="M1105 2006 c-133 -30 -408 -151 -517 -227 -14 -11 -28 -19 -31 -19
-6 0 -136 -78 -230 -138 -241 -154 -289 -187 -274 -190 23 -5 157 65 269 140
51 34 105 69 119 78 14 8 59 34 100 58 41 23 81 47 89 52 70 42 158 88 256
131 118 52 160 63 76 19 -82 -43 -204 -136 -302 -230 -67 -64 -86 -86 -63 -75
18 8 47 28 65 44 33 28 197 139 260 175 55 33 225 96 256 96 9 0 -8 -15 -38
-32 -59 -36 -85 -72 -95 -133 -6 -37 4 -82 39 -166 5 -12 -15 -30 -86 -74 -83
-52 -254 -160 -326 -207 -15 -10 -40 -25 -57 -34 -16 -9 -32 -20 -35 -23 -3
-4 -56 -39 -117 -77 -62 -39 -110 -74 -107 -76 14 -14 210 77 318 148 39 26
96 63 126 82 30 19 66 42 80 52 14 9 50 31 80 49 30 18 102 61 160 96 58 35
121 73 140 83 181 97 288 152 294 152 17 0 -9 -23 -41 -37 -49 -20 -116 -63
-109 -70 3 -3 16 1 28 9 27 18 191 92 251 114 240 88 457 106 570 47 16 -8 32
-12 35 -8 8 8 -16 30 -60 53 l-38 19 36 6 c72 12 184 -70 184 -134 0 -37 -40
-79 -75 -79 -20 0 -25 5 -25 25 0 54 -107 128 -175 121 -58 -7 -135 -29 -145
-42 -7 -7 -18 -14 -25 -14 -22 0 -92 -80 -105 -121 -8 -22 -17 -42 -21 -45 -4
-2 -24 7 -45 21 -20 14 -45 25 -55 25 -10 0 -21 5 -24 10 -18 29 -231 -3 -350
-51 -111 -45 -405 -199 -445 -233 -8 -7 -37 -26 -65 -42 -118 -68 -313 -195
-328 -212 -10 -13 -8 -14 13 -7 38 12 140 64 185 95 38 27 140 93 177 115 10
5 55 32 100 60 108 65 366 195 387 195 12 -1 11 -3 -4 -12 -50 -27 -131 -84
-183 -128 -89 -75 -186 -169 -181 -175 3 -2 32 17 65 43 83 66 132 102 138
102 3 0 27 15 53 34 27 18 80 48 118 66 39 17 77 35 85 40 9 4 36 11 60 15
l45 7 -43 -29 c-57 -39 -82 -82 -82 -141 0 -77 50 -155 131 -207 57 -37 182
-76 261 -81 83 -6 78 10 -7 21 -92 13 -220 71 -283 129 -98 90 -93 205 12 255
72 35 128 23 152 -34 11 -28 20 -35 42 -35 15 0 38 7 50 16 27 19 24 22 47
-41 28 -77 140 -183 245 -235 46 -22 91 -40 100 -40 9 0 20 -4 26 -9 15 -16
232 -59 302 -60 44 -1 41 17 -5 25 -145 25 -349 93 -420 139 -30 20 -22 32 50
70 172 91 216 113 238 120 17 5 12 -1 -16 -21 -59 -41 -148 -114 -139 -114 5
0 47 22 94 49 47 27 113 61 147 75 67 28 197 48 212 33 5 -5 15 -6 22 -1 9 5
6 10 -10 16 -35 12 -16 28 22 17 68 -19 105 -70 77 -105 -19 -22 -34 -17 -48
16 -28 63 -146 61 -209 -3 -86 -85 -46 -219 86 -293 52 -29 156 -60 226 -68
47 -6 48 -5 25 8 -14 7 -45 17 -69 21 -101 17 -231 98 -267 166 -8 16 -14 46
-14 67 0 51 40 96 97 111 53 15 87 2 101 -38 9 -25 17 -31 39 -31 47 0 73 25
73 71 0 112 -179 151 -379 82 -101 -35 -243 -102 -333 -158 -40 -25 -78 -45
-84 -45 -24 0 -107 97 -136 158 -27 56 -30 71 -25 123 4 49 11 67 41 103 19
24 55 53 78 65 48 24 132 37 173 27 37 -9 75 -53 75 -87 0 -34 24 -49 77 -49
45 1 74 15 103 52 34 45 37 90 7 141 -54 92 -153 138 -307 145 -104 4 -137 -1
-295 -42 -133 -34 -419 -162 -613 -274 -52 -29 -99 -51 -106 -49 -14 6 -46
103 -46 142 0 42 46 94 107 122 78 36 136 17 145 -47 2 -18 12 -27 35 -34 28
-7 38 -5 68 18 36 28 51 61 41 93 -9 29 -61 79 -103 98 -48 23 -189 29 -268
11z m238 -39 c76 -32 120 -97 85 -124 -34 -26 -48 -23 -66 13 -9 20 -32 44
-52 55 l-35 19 40 -5 40 -6 -44 24 c-29 16 -40 26 -30 30 22 9 27 8 62 -6z
m-85 -44 c-10 -2 -28 -2 -40 0 -13 2 -5 4 17 4 22 1 32 -1 23 -4z m342 -153
c-8 -5 -19 -10 -25 -10 -5 0 -3 5 5 10 8 5 20 10 25 10 6 0 3 -5 -5 -10z m166
-168 c56 -30 69 -82 27 -109 -20 -13 -22 -12 -38 20 -9 19 -26 39 -38 45 -19
9 -20 11 -3 11 15 1 16 4 6 16 -7 8 -21 15 -32 15 -17 0 -18 3 -9 14 12 15 46
10 87 -12z"></path>


</g>
<g transform="translate(0.000000,300.000000) scale(0.100000,-0.100000)" fill="#FFFFFF" stroke="none">

<path class="node" id="node5" d="M1281 1973 c-10 -4 1 -14 30 -30 l44 -24 -40 6 -40 5 35 -19 c20 -11
43 -35 52 -55 18 -36 32 -39 66 -13 35 27 -9 92 -85 124 -35 14 -40 15 -62 6z"></path>
<path class="node" id="node6" d="M1218 1923 c12 -2 30 -2 40 0 9 3 -1 5 -23 4 -22 0 -30 -2 -17 -4z"></path>
<path class="node" id="node7" d="M1580 1770 c-8 -5 -10 -10 -5 -10 6 0 17 5 25 10 8 5 11 10 5 10 -5
0 -17 -5 -25 -10z"></path>
<path class="node" id="node8" d="M1679 1614 c-9 -11 -8 -14 9 -14 11 0 25 -7 32 -15 10 -12 9 -15 -6
-16 -17 0 -16 -2 3 -11 12 -6 29 -26 38 -45 16 -32 18 -33 38 -20 55 36 17
101 -74 127 -20 6 -31 4 -40 -6z"></path>
</g>
</svg>